<svg id="visual" viewBox="0 0 960 540" width="960" height="540" xmlns="http://www.w3.org/2000/svg" xmlns:xlink="http://www.w3.org/1999/xlink" version="1.1"><path d="M0 100L11.5 98.8C23 97.7 46 95.3 68.8 97.7C91.7 100 114.3 107 137.2 108.7C160 110.3 183 106.7 205.8 105.2C228.7 103.7 251.3 104.3 274.2 100.8C297 97.3 320 89.7 342.8 90C365.7 90.3 388.3 98.7 411.2 99.5C434 100.3 457 93.7 480 92.3C503 91 526 95 548.8 98.7C571.7 102.3 594.3 105.7 617.2 110.2C640 114.7 663 120.3 685.8 122.2C708.7 124 731.3 122 754.2 115.3C777 108.7 800 97.3 822.8 100.5C845.7 103.7 868.3 121.3 891.2 128.2C914 135 937 131 948.5 129L960 127L960 0L948.5 0C937 0 914 0 891.2 0C868.3 0 845.7 0 822.8 0C800 0 777 0 754.2 0C731.3 0 708.7 0 685.8 0C663 0 640 0 617.2 0C594.3 0 571.7 0 548.8 0C526 0 503 0 480 0C457 0 434 0 411.2 0C388.3 0 365.7 0 342.8 0C320 0 297 0 274.2 0C251.3 0 228.7 0 205.8 0C183 0 160 0 137.2 0C114.3 0 91.7 0 68.8 0C46 0 23 0 11.5 0L0 0Z" fill="#fcb69f"></path><path d="M0 101L11.5 97.3C23 93.7 46 86.3 68.8 86C91.7 85.7 114.3 92.3 137.2 96.5C160 100.7 183 102.3 205.8 104C228.7 105.7 251.3 107.3 274.2 108.7C297 110 320 111 342.8 105.7C365.7 100.3 388.3 88.7 411.2 87.8C434 87 457 97 480 103.5C503 110 526 113 548.8 107.5C571.7 102 594.3 88 617.2 84.2C640 80.3 663 86.7 685.8 92C708.7 97.3 731.3 101.7 754.2 102C777 102.3 800 98.7 822.8 99.7C845.7 100.7 868.3 106.3 891.2 108.2C914 110 937 108 948.5 107L960 106L960 0L948.5 0C937 0 914 0 891.2 0C868.3 0 845.7 0 822.8 0C800 0 777 0 754.2 0C731.3 0 708.7 0 685.8 0C663 0 640 0 617.2 0C594.3 0 571.7 0 548.8 0C526 0 503 0 480 0C457 0 434 0 411.2 0C388.3 0 365.7 0 342.8 0C320 0 297 0 274.2 0C251.3 0 228.7 0 205.8 0C183 0 160 0 137.2 0C114.3 0 91.7 0 68.8 0C46 0 23 0 11.5 0L0 0Z" fill="#fcc1a6"></path><path d="M0 91L11.5 85.2C23 79.3 46 67.7 68.8 66.2C91.7 64.7 114.3 73.3 137.2 72.5C160 71.7 183 61.3 205.8 59.7C228.7 58 251.3 65 274.2 67.3C297 69.7 320 67.3 342.8 63.7C365.7 60 388.3 55 411.2 53.7C434 52.3 457 54.7 480 58.8C503 63 526 69 548.8 73C571.7 77 594.3 79 617.2 76.8C640 74.7 663 68.3 685.8 69.8C708.7 71.3 731.3 80.7 754.2 86.7C777 92.7 800 95.3 822.8 93.5C845.7 91.7 868.3 85.3 891.2 82.2C914 79 937 79 948.5 79L960 79L960 0L948.5 0C937 0 914 0 891.2 0C868.3 0 845.7 0 822.8 0C800 0 777 0 754.2 0C731.3 0 708.7 0 685.8 0C663 0 640 0 617.2 0C594.3 0 571.7 0 548.8 0C526 0 503 0 480 0C457 0 434 0 411.2 0C388.3 0 365.7 0 342.8 0C320 0 297 0 274.2 0C251.3 0 228.7 0 205.8 0C183 0 160 0 137.2 0C114.3 0 91.7 0 68.8 0C46 0 23 0 11.5 0L0 0Z" fill="#fdcdaf"></path><path d="M0 58L11.5 55.7C23 53.3 46 48.7 68.8 50C91.7 51.3 114.3 58.7 137.2 58.5C160 58.3 183 50.7 205.8 51C228.7 51.3 251.3 59.7 274.2 63.5C297 67.3 320 66.7 342.8 67.2C365.7 67.7 388.3 69.3 411.2 65.7C434 62 457 53 480 49.5C503 46 526 48 548.8 53C571.7 58 594.3 66 617.2 64.3C640 62.7 663 51.3 685.8 48.8C708.7 46.3 731.3 52.7 754.2 56.5C777 60.3 800 61.7 822.8 62.2C845.7 62.7 868.3 62.3 891.2 63.3C914 64.3 937 66.7 948.5 67.8L960 69L960 0L948.5 0C937 0 914 0 891.2 0C868.3 0 845.7 0 822.8 0C800 0 777 0 754.2 0C731.3 0 708.7 0 685.8 0C663 0 640 0 617.2 0C594.3 0 571.7 0 548.8 0C526 0 503 0 480 0C457 0 434 0 411.2 0C388.3 0 365.7 0 342.8 0C320 0 297 0 274.2 0C251.3 0 228.7 0 205.8 0C183 0 160 0 137.2 0C114.3 0 91.7 0 68.8 0C46 0 23 0 11.5 0L0 0Z" fill="#fdd7b9"></path><path d="M0 34L11.5 32.5C23 31 46 28 68.8 30.3C91.7 32.7 114.3 40.3 137.2 42C160 43.7 183 39.3 205.8 40C228.7 40.7 251.3 46.3 274.2 44.8C297 43.3 320 34.7 342.8 30.2C365.7 25.7 388.3 25.3 411.2 26.3C434 27.3 457 29.7 480 34.5C503 39.3 526 46.7 548.8 49.7C571.7 52.7 594.3 51.3 617.2 49.5C640 47.7 663 45.3 685.8 42C708.7 38.7 731.3 34.3 754.2 34.7C777 35 800 40 822.8 39.5C845.7 39 868.3 33 891.2 31.8C914 30.7 937 34.3 948.5 36.2L960 38L960 0L948.5 0C937 0 914 0 891.2 0C868.3 0 845.7 0 822.8 0C800 0 777 0 754.2 0C731.3 0 708.7 0 685.8 0C663 0 640 0 617.2 0C594.3 0 571.7 0 548.8 0C526 0 503 0 480 0C457 0 434 0 411.2 0C388.3 0 365.7 0 342.8 0C320 0 297 0 274.2 0C251.3 0 228.7 0 205.8 0C183 0 160 0 137.2 0C114.3 0 91.7 0 68.8 0C46 0 23 0 11.5 0L0 0Z" fill="#fee2c5"></path><path d="M0 18L11.5 21C23 24 46 30 68.8 32C91.7 34 114.3 32 137.2 30.3C160 28.7 183 27.3 205.8 27.3C228.7 27.3 251.3 28.7 274.2 27.8C297 27 320 24 342.8 24.5C365.7 25 388.3 29 411.2 27.3C434 25.7 457 18.3 480 16.8C503 15.3 526 19.7 548.8 19.8C571.7 20 594.3 16 617.2 15.5C640 15 663 18 685.8 19.2C708.7 20.3 731.3 19.7 754.2 18.7C777 17.7 800 16.3 822.8 15.2C845.7 14 868.3 13 891.2 14.3C914 15.7 937 19.3 948.5 21.2L960 23L960 0L948.5 0C937 0 914 0 891.2 0C868.3 0 845.7 0 822.8 0C800 0 777 0 754.2 0C731.3 0 708.7 0 685.8 0C663 0 640 0 617.2 0C594.3 0 571.7 0 548.8 0C526 0 503 0 480 0C457 0 434 0 411.2 0C388.3 0 365.7 0 342.8 0C320 0 297 0 274.2 0C251.3 0 228.7 0 205.8 0C183 0 160 0 137.2 0C114.3 0 91.7 0 68.8 0C46 0 23 0 11.5 0L0 0Z" fill="#ffecd2"></path></svg>