<?xml version="1.0" encoding="UTF-8" standalone="no"?>
<!DOCTYPE svg PUBLIC "-//W3C//DTD SVG 1.1//EN" "http://www.w3.org/Graphics/SVG/1.1/DTD/svg11.dtd">
<svg width="100%" height="100%" viewBox="0 0 900 600" version="1.1" xmlns="http://www.w3.org/2000/svg" xmlns:xlink="http://www.w3.org/1999/xlink" xml:space="preserve" xmlns:serif="http://www.serif.com/" style="fill-rule:evenodd;clip-rule:evenodd;stroke-linejoin:round;stroke-miterlimit:2;">
    <g transform="matrix(-1,-1.249e-16,1.249e-16,-1,827.71,616.422)">
        <path d="M726.126,13.048C726.126,13.048 289.349,-32.615 163.803,16.523C119.606,33.822 239.719,130.414 257.2,151.5C284.215,184.086 366.69,218.715 409.523,219.582C452.357,220.448 477.988,190.115 520.131,198.216C562.964,206.449 559.934,260.002 602.767,269.352C644.91,278.552 664.442,157.116 738.988,141.261C766.369,135.437 768.926,13.048 726.126,13.048Z" style="fill:rgb(255,111,97);fill-rule:nonzero;"/>
    </g>
    <g transform="matrix(-1,-1.249e-16,1.249e-16,-1,669.061,609.008)">
        <path d="M15.569,11.862C11.986,34.029 214.391,153.584 257.2,154.3C300.033,155.017 342.967,159.717 385.8,162C428.586,164.281 456.559,225.642 499.373,227.308C542.206,228.975 576.662,212.766 592.981,173.186C618.474,111.355 730.611,65.18 713.656,25.764C665.732,-85.65 63.3,-140.03 21.5,0C14.333,0 16.713,4.787 15.569,11.862Z" style="fill:rgb(255,149,125);fill-rule:nonzero;"/>
    </g>
</svg>
