<?xml version="1.0" encoding="UTF-8" standalone="no"?>
<!DOCTYPE svg PUBLIC "-//W3C//DTD SVG 1.1//EN" "http://www.w3.org/Graphics/SVG/1.1/DTD/svg11.dtd">
<svg width="100%" height="100%" viewBox="0 0 900 600" version="1.1" xmlns="http://www.w3.org/2000/svg" xmlns:xlink="http://www.w3.org/1999/xlink" xml:space="preserve" xmlns:serif="http://www.serif.com/" style="fill-rule:evenodd;clip-rule:evenodd;stroke-linejoin:round;stroke-miterlimit:2;">
    <path d="M257.2,601C214.3,601 421.762,459.267 486.029,424.217C532.943,398.631 610.379,423.058 653.179,411.458C696.079,399.758 728.3,376 771.2,381.7C814,387.3 857,401.7 878.5,408.8L900,416L900,601L257.2,601Z" style="fill:rgb(250,114,104);fill-rule:nonzero;"/>
    <path d="M355.551,598.035C312.651,598.035 471.3,482 514.2,475.7C557,469.3 600,467.7 642.8,478C685.7,488.3 713.473,479.563 756.373,486.863C799.173,494.163 882.206,296.296 903.706,292.396L899.829,598.962C899.829,598.962 814,601 771.2,601L642.8,601C600,601 398.351,598.035 355.551,598.035Z" style="fill:rgb(252,182,159);fill-rule:nonzero;"/>
    <g transform="matrix(-1,0,0,-1,900.277,594.539)">
        <path d="M257.2,601C214.3,601 421.762,459.267 486.029,424.217C532.943,398.631 610.379,423.058 653.179,411.458C696.079,399.758 728.3,376 771.2,381.7C814,387.3 857,401.7 878.5,408.8L900,416L900,601L257.2,601Z" style="fill:rgb(250,114,104);fill-rule:nonzero;"/>
    </g>
    <g transform="matrix(-1,0,0,-1,900.277,594.539)">
        <path d="M355.551,598.035C312.651,598.035 471.3,482 514.2,475.7C557,469.3 600,467.7 642.8,478C685.7,488.3 713.473,479.563 756.373,486.863C799.173,494.163 882.206,296.296 903.706,292.396L899.829,598.962C899.829,598.962 814,601 771.2,601L642.8,601C600,601 398.351,598.035 355.551,598.035Z" style="fill:rgb(252,182,159);fill-rule:nonzero;"/>
    </g>
</svg>
