<?xml version="1.0" encoding="UTF-8" standalone="no"?><!DOCTYPE svg PUBLIC "-//W3C//DTD SVG 1.1//EN" "http://www.w3.org/Graphics/SVG/1.1/DTD/svg11.dtd"><svg width="100%" height="100%" viewBox="0 0 2000 3000" version="1.1" xmlns="http://www.w3.org/2000/svg" xmlns:xlink="http://www.w3.org/1999/xlink" xml:space="preserve" xmlns:serif="http://www.serif.com/" style="fill-rule:evenodd;clip-rule:evenodd;stroke-linejoin:round;stroke-miterlimit:2;"><path d="M-11.673,483.875l30.695,-35.063c30.471,-35.063 91.862,-105.19 153.028,-126.695c61.166,-21.272 122.557,5.844 183.275,43.712c60.942,37.868 121.437,86.022 182.379,90.697c60.718,4.675 122.109,-34.128 183.275,-49.79c61.166,-15.661 122.557,-7.714 183.723,2.338c61.166,10.051 122.557,22.674 183.723,39.037c61.167,16.363 122.557,36.466 183.723,31.557c61.167,-5.143 113.98,105.609 174.698,88.077c70.699,-20.413 214.701,-123.418 280.281,10.657c21.591,44.14 259.877,409.693 293.12,354.32c36.21,-60.313 -15.447,-932.719 -15.447,-932.719l-2016.47,-0l-0,483.872Z" style="fill:#fa7268;fill-rule:nonzero;"/><path d="M-11.673,161.294l30.695,7.713c30.471,7.948 91.862,23.376 153.028,30.856c61.166,7.48 122.557,6.545 183.275,-4.675c60.942,-11.22 121.437,-33.193 182.379,-30.856c60.718,2.338 122.109,28.986 183.275,51.894c61.166,22.908 122.557,42.543 183.723,45.582c61.166,3.039 122.557,-10.051 183.723,-3.974c61.167,6.312 122.557,32.025 183.723,46.05c61.167,14.025 122.557,16.363 183.275,-11.22c26.936,-12.295 312.51,-49.487 432.088,131.69c34.182,51.789 146.491,205.984 145.863,124.109c-1.047,-136.635 -28.574,-550.066 -28.574,-548.46l-2016.47,-0l-0,161.291Z" style="fill:#fcb69f;fill-rule:nonzero;"/><path d="M-35.019,1949.42c-0,0 305.246,135.717 294.954,193.327c-10.291,57.61 21.594,95.127 19.27,152.737c-2.158,57.61 4.482,115.422 40.668,173.436c36.352,58.014 102.086,115.826 143.086,173.841c41,58.014 56.935,115.826 36.02,173.436c-21.081,57.61 -79.178,115.017 -120.345,172.627c-41.332,57.61 -428.595,406.526 -428.595,406.526l14.942,-261.995l-0,-1183.93Z" style="fill:#fa7268;fill-rule:nonzero;"/><path d="M-5.837,811.903c0,-0 228.637,201.676 265.589,377.097c12.358,58.667 -28.219,115.018 -28.551,172.628c-0.166,57.61 10.79,115.422 4.98,173.436c-5.81,58.014 -28.385,115.826 -17.097,173.841c11.287,58.014 56.769,115.826 80.506,173.436c23.737,57.61 26.061,115.018 7.802,172.627c-18.259,57.61 -316.217,537.4 -316.217,537.4l2.988,-392.869l0,-1387.6Z" style="fill:#fcb69f;fill-rule:nonzero;"/><path d="M2300.49,2057.68c0,-0 -341.87,-122.571 -369.924,-183.536c-28.054,-60.964 -94.996,-121.715 -110.474,-182.679c-15.478,-60.965 20.508,-122.143 50.497,-183.535c29.989,-61.393 53.979,-122.571 17.219,-183.963c-36.76,-61.393 -134.271,-122.571 -184.768,-183.536c-50.691,-60.964 -54.56,-121.715 -10.642,-182.679c43.726,-60.965 135.433,-122.143 181.093,-152.946l45.854,-30.589l381.145,-0l0,1283.46Z" style="fill:#fa7268;fill-rule:nonzero;"/><path d="M2051.34,1979.24c-0,0 -129.953,-396.345 -124.363,-455.25c5.745,-58.905 -23.757,-117.603 -11.646,-176.509c12.267,-58.905 65.991,-118.017 73.599,-177.335c7.453,-59.319 -31.365,-118.431 -27.172,-177.749c4.037,-59.319 51.239,-118.431 48.6,-177.336c-2.64,-58.905 -72.082,-107.473 -84.623,-176.509c-16.412,-90.335 -18.267,-106.607 -90.959,-275.242c-99.732,-231.367 310.981,-200.98 351.038,97.907l0,1210.55l-134.474,307.47Z" style="fill:#fcb69f;fill-rule:nonzero;"/><path d="M513.212,2994.26c-98.079,-0 376.228,-369.582 523.158,-460.978c107.256,-66.717 284.294,-3.022 382.145,-33.27c98.079,-30.509 171.744,-92.46 269.824,-77.597c97.851,14.603 196.159,52.152 245.313,70.666l49.154,18.775l0,482.404l-1469.59,-0Z" style="fill:#fa7268;fill-rule:nonzero;"/><path d="M738.066,2986.53c-98.079,0 264.63,-302.571 362.709,-318.999c97.851,-16.689 196.16,-20.861 294.011,5.997c98.079,26.859 161.575,4.076 259.655,23.111c97.851,19.036 287.684,-496.92 336.838,-507.09l-8.864,799.399c0,-0 -196.225,5.314 -294.076,5.314l-293.553,-0c-97.851,-0 -558.869,-7.732 -656.72,-7.732Z" style="fill:#fcb69f;fill-rule:nonzero;"/></svg>