<svg id="visual" viewBox="0 0 900 600" width="900" height="600" xmlns="http://www.w3.org/2000/svg" xmlns:xlink="http://www.w3.org/1999/xlink" version="1.1"><path d="M0 185L10.7 184.2C21.3 183.3 42.7 181.7 64.2 190.5C85.7 199.3 107.3 218.7 128.8 216.2C150.3 213.7 171.7 189.3 193 180.7C214.3 172 235.7 179 257 190.7C278.3 202.3 299.7 218.7 321.2 229.8C342.7 241 364.3 247 385.8 249.2C407.3 251.3 428.7 249.7 450 241C471.3 232.3 492.7 216.7 514.2 214C535.7 211.3 557.3 221.7 578.8 229C600.3 236.3 621.7 240.7 643 237C664.3 233.3 685.7 221.7 707 219.5C728.3 217.3 749.7 224.7 771.2 225.3C792.7 226 814.3 220 835.8 220.3C857.3 220.7 878.7 227.3 889.3 230.7L900 234L900 0L889.3 0C878.7 0 857.3 0 835.8 0C814.3 0 792.7 0 771.2 0C749.7 0 728.3 0 707 0C685.7 0 664.3 0 643 0C621.7 0 600.3 0 578.8 0C557.3 0 535.7 0 514.2 0C492.7 0 471.3 0 450 0C428.7 0 407.3 0 385.8 0C364.3 0 342.7 0 321.2 0C299.7 0 278.3 0 257 0C235.7 0 214.3 0 193 0C171.7 0 150.3 0 128.8 0C107.3 0 85.7 0 64.2 0C42.7 0 21.3 0 10.7 0L0 0Z" fill="#ffc876"></path><path d="M0 163L10.7 164.8C21.3 166.7 42.7 170.3 64.2 162C85.7 153.7 107.3 133.3 128.8 123.7C150.3 114 171.7 115 193 116.5C214.3 118 235.7 120 257 119C278.3 118 299.7 114 321.2 122.5C342.7 131 364.3 152 385.8 155.5C407.3 159 428.7 145 450 142C471.3 139 492.7 147 514.2 142.7C535.7 138.3 557.3 121.7 578.8 115.8C600.3 110 621.7 115 643 120.3C664.3 125.7 685.7 131.3 707 139.5C728.3 147.7 749.7 158.3 771.2 152.8C792.7 147.3 814.3 125.7 835.8 127.3C857.3 129 878.7 154 889.3 166.5L900 179L900 0L889.3 0C878.7 0 857.3 0 835.8 0C814.3 0 792.7 0 771.2 0C749.7 0 728.3 0 707 0C685.7 0 664.3 0 643 0C621.7 0 600.3 0 578.8 0C557.3 0 535.7 0 514.2 0C492.7 0 471.3 0 450 0C428.7 0 407.3 0 385.8 0C364.3 0 342.7 0 321.2 0C299.7 0 278.3 0 257 0C235.7 0 214.3 0 193 0C171.7 0 150.3 0 128.8 0C107.3 0 85.7 0 64.2 0C42.7 0 21.3 0 10.7 0L0 0Z" fill="#ff9e61"></path><path d="M0 102L10.7 95C21.3 88 42.7 74 64.2 65C85.7 56 107.3 52 128.8 55.8C150.3 59.7 171.7 71.3 193 72.8C214.3 74.3 235.7 65.7 257 67.3C278.3 69 299.7 81 321.2 78C342.7 75 364.3 57 385.8 54.7C407.3 52.3 428.7 65.7 450 73.7C471.3 81.7 492.7 84.3 514.2 89C535.7 93.7 557.3 100.3 578.8 100.5C600.3 100.7 621.7 94.3 643 85.2C664.3 76 685.7 64 707 64C728.3 64 749.7 76 771.2 78.3C792.7 80.7 814.3 73.3 835.8 75.2C857.3 77 878.7 88 889.3 93.5L900 99L900 0L889.3 0C878.7 0 857.3 0 835.8 0C814.3 0 792.7 0 771.2 0C749.7 0 728.3 0 707 0C685.7 0 664.3 0 643 0C621.7 0 600.3 0 578.8 0C557.3 0 535.7 0 514.2 0C492.7 0 471.3 0 450 0C428.7 0 407.3 0 385.8 0C364.3 0 342.7 0 321.2 0C299.7 0 278.3 0 257 0C235.7 0 214.3 0 193 0C171.7 0 150.3 0 128.8 0C107.3 0 85.7 0 64.2 0C42.7 0 21.3 0 10.7 0L0 0Z" fill="#ff6f61"></path></svg>