<svg id="visual" viewBox="0 0 900 600" width="900" height="600" xmlns="http://www.w3.org/2000/svg" xmlns:xlink="http://www.w3.org/1999/xlink" version="1.1"><path d="M0 175L30 171.3C60 167.7 120 160.3 180 176.2C240 192 300 231 360 229.8C420 228.7 480 187.3 540 195.5C600 203.7 660 261.3 720 290C780 318.7 840 318.3 870 318.2L900 318L900 0L870 0C840 0 780 0 720 0C660 0 600 0 540 0C480 0 420 0 360 0C300 0 240 0 180 0C120 0 60 0 30 0L0 0Z" fill="#fa7268"></path><path d="M0 224L30 203.2C60 182.3 120 140.7 180 145C240 149.3 300 199.7 360 226.7C420 253.7 480 257.3 540 255.5C600 253.7 660 246.3 720 252C780 257.7 840 276.3 870 285.7L900 295L900 0L870 0C840 0 780 0 720 0C660 0 600 0 540 0C480 0 420 0 360 0C300 0 240 0 180 0C120 0 60 0 30 0L0 0Z" fill="#f28266"></path><path d="M0 121L30 122.7C60 124.3 120 127.7 180 137.5C240 147.3 300 163.7 360 175.3C420 187 480 194 540 186.5C600 179 660 157 720 153.5C780 150 840 165 870 172.5L900 180L900 0L870 0C840 0 780 0 720 0C660 0 600 0 540 0C480 0 420 0 360 0C300 0 240 0 180 0C120 0 60 0 30 0L0 0Z" fill="#ea9069"></path><path d="M0 51L30 65.5C60 80 120 109 180 116.2C240 123.3 300 108.7 360 97.2C420 85.7 480 77.3 540 75.5C600 73.7 660 78.3 720 91.3C780 104.3 840 125.7 870 136.3L900 147L900 0L870 0C840 0 780 0 720 0C660 0 600 0 540 0C480 0 420 0 360 0C300 0 240 0 180 0C120 0 60 0 30 0L0 0Z" fill="#e19c70"></path></svg>