<svg id="visual" viewBox="0 0 900 600" width="900" height="600" xmlns="http://www.w3.org/2000/svg" xmlns:xlink="http://www.w3.org/1999/xlink" version="1.1"><path d="M134 0L152 11.2C170 22.3 206 44.7 203.3 66.8C200.7 89 159.3 111 152 133.2C144.7 155.3 171.3 177.7 195.2 200C219 222.3 240 244.7 230.3 266.8C220.7 289 180.3 311 175.5 333.2C170.7 355.3 201.3 377.7 205.3 400C209.3 422.3 186.7 444.7 163.7 466.8C140.7 489 117.3 511 129.8 533.2C142.3 555.3 190.7 577.7 214.8 588.8L239 600L0 600L0 588.8C0 577.7 0 555.3 0 533.2C0 511 0 489 0 466.8C0 444.7 0 422.3 0 400C0 377.7 0 355.3 0 333.2C0 311 0 289 0 266.8C0 244.7 0 222.3 0 200C0 177.7 0 155.3 0 133.2C0 111 0 89 0 66.8C0 44.7 0 22.3 0 11.2L0 0Z" fill="#FF6F61" stroke-linecap="round" stroke-linejoin="miter"></path></svg>