<svg id="visual" viewBox="0 0 900 600" width="900" height="600" xmlns="http://www.w3.org/2000/svg" xmlns:xlink="http://www.w3.org/1999/xlink" version="1.1"><path d="M427 600L464.8 580C502.7 560 578.3 520 616.5 480C654.7 440 655.3 400 598.3 360C541.3 320 426.7 280 378.2 240C329.7 200 347.3 160 346.5 120C345.7 80 326.3 40 316.7 20L307 0L900 0L900 20C900 40 900 80 900 120C900 160 900 200 900 240C900 280 900 320 900 360C900 400 900 440 900 480C900 520 900 560 900 580L900 600Z" fill="#fa7268"></path><path d="M509 600L541 580C573 560 637 520 626.3 480C615.7 440 530.3 400 486.3 360C442.3 320 439.7 280 458.7 240C477.7 200 518.3 160 570.7 120C623 80 687 40 719 20L751 0L900 0L900 20C900 40 900 80 900 120C900 160 900 200 900 240C900 280 900 320 900 360C900 400 900 440 900 480C900 520 900 560 900 580L900 600Z" fill="#f28266"></path><path d="M653 600L637.7 580C622.3 560 591.7 520 574 480C556.3 440 551.7 400 553.8 360C556 320 565 280 575 240C585 200 596 160 608 120C620 80 633 40 639.5 20L646 0L900 0L900 20C900 40 900 80 900 120C900 160 900 200 900 240C900 280 900 320 900 360C900 400 900 440 900 480C900 520 900 560 900 580L900 600Z" fill="#ea9069"></path><path d="M809 600L817.2 580C825.3 560 841.7 520 850.3 480C859 440 860 400 833.8 360C807.7 320 754.3 280 732.3 240C710.3 200 719.7 160 719.2 120C718.7 80 708.3 40 703.2 20L698 0L900 0L900 20C900 40 900 80 900 120C900 160 900 200 900 240C900 280 900 320 900 360C900 400 900 440 900 480C900 520 900 560 900 580L900 600Z" fill="#e19c70"></path></svg>