<svg id="visual" viewBox="0 0 900 600" width="900" height="600" xmlns="http://www.w3.org/2000/svg" xmlns:xlink="http://www.w3.org/1999/xlink" version="1.1"><path d="M217 0L224.8 9.2C232.7 18.3 248.3 36.7 262.8 54.8C277.3 73 290.7 91 301.5 109.2C312.3 127.3 320.7 145.7 318.8 163.8C317 182 305 200 282.7 218.2C260.3 236.3 227.7 254.7 217.8 272.8C208 291 221 309 241.2 327.2C261.3 345.3 288.7 363.7 281.7 381.8C274.7 400 233.3 418 216.3 436.2C199.3 454.3 206.7 472.7 212.8 490.8C219 509 224 527 240.5 545.2C257 563.3 285 581.7 299 590.8L313 600L0 600L0 590.8C0 581.7 0 563.3 0 545.2C0 527 0 509 0 490.8C0 472.7 0 454.3 0 436.2C0 418 0 400 0 381.8C0 363.7 0 345.3 0 327.2C0 309 0 291 0 272.8C0 254.7 0 236.3 0 218.2C0 200 0 182 0 163.8C0 145.7 0 127.3 0 109.2C0 91 0 73 0 54.8C0 36.7 0 18.3 0 9.2L0 0Z" fill="#fa7268"></path><path d="M201 0L186 9.2C171 18.3 141 36.7 138.2 54.8C135.3 73 159.7 91 157.7 109.2C155.7 127.3 127.3 145.7 121.2 163.8C115 182 131 200 148.8 218.2C166.7 236.3 186.3 254.7 195.8 272.8C205.3 291 204.7 309 202.5 327.2C200.3 345.3 196.7 363.7 181.8 381.8C167 400 141 418 124.5 436.2C108 454.3 101 472.7 100.8 490.8C100.7 509 107.3 527 118.5 545.2C129.7 563.3 145.3 581.7 153.2 590.8L161 600L0 600L0 590.8C0 581.7 0 563.3 0 545.2C0 527 0 509 0 490.8C0 472.7 0 454.3 0 436.2C0 418 0 400 0 381.8C0 363.7 0 345.3 0 327.2C0 309 0 291 0 272.8C0 254.7 0 236.3 0 218.2C0 200 0 182 0 163.8C0 145.7 0 127.3 0 109.2C0 91 0 73 0 54.8C0 36.7 0 18.3 0 9.2L0 0Z" fill="#eee1b2"></path></svg>