<svg id="visual" viewBox="0 0 900 600" width="900" height="600" xmlns="http://www.w3.org/2000/svg" xmlns:xlink="http://www.w3.org/1999/xlink" version="1.1"><path d="M0 382L13.7 388.8C27.3 395.7 54.7 409.3 82 417.7C109.3 426 136.7 429 163.8 429.2C191 429.3 218 426.7 245.2 418.7C272.3 410.7 299.7 397.3 327 404.3C354.3 411.3 381.7 438.7 409 446.7C436.3 454.7 463.7 443.3 491 438C518.3 432.7 545.7 433.3 573 428.7C600.3 424 627.7 414 654.8 409.5C682 405 709 406 736.2 411.8C763.3 417.7 790.7 428.3 818 424.7C845.3 421 872.7 403 886.3 394L900 385L900 601L886.3 601C872.7 601 845.3 601 818 601C790.7 601 763.3 601 736.2 601C709 601 682 601 654.8 601C627.7 601 600.3 601 573 601C545.7 601 518.3 601 491 601C463.7 601 436.3 601 409 601C381.7 601 354.3 601 327 601C299.7 601 272.3 601 245.2 601C218 601 191 601 163.8 601C136.7 601 109.3 601 82 601C54.7 601 27.3 601 13.7 601L0 601Z" fill="#fa7268"></path><path d="M0 476L13.7 479.5C27.3 483 54.7 490 82 495.7C109.3 501.3 136.7 505.7 163.8 500.8C191 496 218 482 245.2 477.3C272.3 472.7 299.7 477.3 327 479.8C354.3 482.3 381.7 482.7 409 487.2C436.3 491.7 463.7 500.3 491 495.8C518.3 491.3 545.7 473.7 573 467C600.3 460.3 627.7 464.7 654.8 464.8C682 465 709 461 736.2 464.3C763.3 467.7 790.7 478.3 818 476.7C845.3 475 872.7 461 886.3 454L900 447L900 601L886.3 601C872.7 601 845.3 601 818 601C790.7 601 763.3 601 736.2 601C709 601 682 601 654.8 601C627.7 601 600.3 601 573 601C545.7 601 518.3 601 491 601C463.7 601 436.3 601 409 601C381.7 601 354.3 601 327 601C299.7 601 272.3 601 245.2 601C218 601 191 601 163.8 601C136.7 601 109.3 601 82 601C54.7 601 27.3 601 13.7 601L0 601Z" fill="#f4b079"></path><path d="M0 499L13.7 498.7C27.3 498.3 54.7 497.7 82 503.5C109.3 509.3 136.7 521.7 163.8 522.8C191 524 218 514 245.2 509.8C272.3 505.7 299.7 507.3 327 514.5C354.3 521.7 381.7 534.3 409 541.7C436.3 549 463.7 551 491 548.3C518.3 545.7 545.7 538.3 573 531.5C600.3 524.7 627.7 518.3 654.8 516.3C682 514.3 709 516.7 736.2 519.3C763.3 522 790.7 525 818 522.5C845.3 520 872.7 512 886.3 508L900 504L900 601L886.3 601C872.7 601 845.3 601 818 601C790.7 601 763.3 601 736.2 601C709 601 682 601 654.8 601C627.7 601 600.3 601 573 601C545.7 601 518.3 601 491 601C463.7 601 436.3 601 409 601C381.7 601 354.3 601 327 601C299.7 601 272.3 601 245.2 601C218 601 191 601 163.8 601C136.7 601 109.3 601 82 601C54.7 601 27.3 601 13.7 601L0 601Z" fill="#eee1b2"></path></svg>