<svg id="visual" viewBox="0 0 900 600" width="900" height="600" xmlns="http://www.w3.org/2000/svg" xmlns:xlink="http://www.w3.org/1999/xlink" version="1.1"><path d="M571 600L581.8 590.8C592.7 581.7 614.3 563.3 636.3 545.2C658.3 527 680.7 509 671.3 490.8C662 472.7 621 454.3 610.2 436.2C599.3 418 618.7 400 615.7 381.8C612.7 363.7 587.3 345.3 589.7 327.2C592 309 622 291 642.2 272.8C662.3 254.7 672.7 236.3 670.3 218.2C668 200 653 182 638.5 163.8C624 145.7 610 127.3 615.3 109.2C620.7 91 645.3 73 642.8 54.8C640.3 36.7 610.7 18.3 595.8 9.2L581 0L900 0L900 9.2C900 18.3 900 36.7 900 54.8C900 73 900 91 900 109.2C900 127.3 900 145.7 900 163.8C900 182 900 200 900 218.2C900 236.3 900 254.7 900 272.8C900 291 900 309 900 327.2C900 345.3 900 363.7 900 381.8C900 400 900 418 900 436.2C900 454.3 900 472.7 900 490.8C900 509 900 527 900 545.2C900 563.3 900 581.7 900 590.8L900 600Z" fill="#fa7268"></path><path d="M700 600L706 590.8C712 581.7 724 563.3 731.3 545.2C738.7 527 741.3 509 734.5 490.8C727.7 472.7 711.3 454.3 698.5 436.2C685.7 418 676.3 400 678 381.8C679.7 363.7 692.3 345.3 698.7 327.2C705 309 705 291 700.7 272.8C696.3 254.7 687.7 236.3 691.2 218.2C694.7 200 710.3 182 713.5 163.8C716.7 145.7 707.3 127.3 702.5 109.2C697.7 91 697.3 73 707.5 54.8C717.7 36.7 738.3 18.3 748.7 9.2L759 0L900 0L900 9.2C900 18.3 900 36.7 900 54.8C900 73 900 91 900 109.2C900 127.3 900 145.7 900 163.8C900 182 900 200 900 218.2C900 236.3 900 254.7 900 272.8C900 291 900 309 900 327.2C900 345.3 900 363.7 900 381.8C900 400 900 418 900 436.2C900 454.3 900 472.7 900 490.8C900 509 900 527 900 545.2C900 563.3 900 581.7 900 590.8L900 600Z" fill="#f4b079"></path><path d="M790 600L785.8 590.8C781.7 581.7 773.3 563.3 773.7 545.2C774 527 783 509 784.7 490.8C786.3 472.7 780.7 454.3 786.8 436.2C793 418 811 400 812.3 381.8C813.7 363.7 798.3 345.3 790.3 327.2C782.3 309 781.7 291 776.8 272.8C772 254.7 763 236.3 770.7 218.2C778.3 200 802.7 182 812.8 163.8C823 145.7 819 127.3 816.5 109.2C814 91 813 73 809.7 54.8C806.3 36.7 800.7 18.3 797.8 9.2L795 0L900 0L900 9.2C900 18.3 900 36.7 900 54.8C900 73 900 91 900 109.2C900 127.3 900 145.7 900 163.8C900 182 900 200 900 218.2C900 236.3 900 254.7 900 272.8C900 291 900 309 900 327.2C900 345.3 900 363.7 900 381.8C900 400 900 418 900 436.2C900 454.3 900 472.7 900 490.8C900 509 900 527 900 545.2C900 563.3 900 581.7 900 590.8L900 600Z" fill="#eee1b2"></path></svg>