<svg id="visual" viewBox="0 0 900 600" width="900" height="600" xmlns="http://www.w3.org/2000/svg" xmlns:xlink="http://www.w3.org/1999/xlink" version="1.1"><path d="M0 202L21.5 196C43 190 86 178 128.8 169.2C171.7 160.3 214.3 154.7 257.2 151.5C300 148.3 343 147.7 385.8 147.3C428.7 147 471.3 147 514.2 156.7C557 166.3 600 185.7 642.8 196.7C685.7 207.7 728.3 210.3 771.2 212.8C814 215.3 857 217.7 878.5 218.8L900 220L900 0L878.5 0C857 0 814 0 771.2 0C728.3 0 685.7 0 642.8 0C600 0 557 0 514.2 0C471.3 0 428.7 0 385.8 0C343 0 300 0 257.2 0C214.3 0 171.7 0 128.8 0C86 0 43 0 21.5 0L0 0Z" fill="#ff6f61"></path><path d="M0 133L21.5 138.5C43 144 86 155 128.8 157.7C171.7 160.3 214.3 154.7 257.2 154.3C300 154 343 159 385.8 162C428.7 165 471.3 166 514.2 168C557 170 600 173 642.8 172C685.7 171 728.3 166 771.2 155.3C814 144.7 857 128.3 878.5 120.2L900 112L900 0L878.5 0C857 0 814 0 771.2 0C728.3 0 685.7 0 642.8 0C600 0 557 0 514.2 0C471.3 0 428.7 0 385.8 0C343 0 300 0 257.2 0C214.3 0 171.7 0 128.8 0C86 0 43 0 21.5 0L0 0Z" fill="#ff957d"></path><path d="M0 103L21.5 102.5C43 102 86 101 128.8 90.3C171.7 79.7 214.3 59.3 257.2 48.8C300 38.3 343 37.7 385.8 48C428.7 58.3 471.3 79.7 514.2 86C557 92.3 600 83.7 642.8 84.8C685.7 86 728.3 97 771.2 93.8C814 90.7 857 73.3 878.5 64.7L900 56L900 0L878.5 0C857 0 814 0 771.2 0C728.3 0 685.7 0 642.8 0C600 0 557 0 514.2 0C471.3 0 428.7 0 385.8 0C343 0 300 0 257.2 0C214.3 0 171.7 0 128.8 0C86 0 43 0 21.5 0L0 0Z" fill="#fcb69f"></path></svg>