<svg id="visual" viewBox="0 0 900 600" width="900" height="600" xmlns="http://www.w3.org/2000/svg" xmlns:xlink="http://www.w3.org/1999/xlink" version="1.1"><path d="M221 0L218.2 14.3C215.3 28.7 209.7 57.3 203.5 85.8C197.3 114.3 190.7 142.7 189.3 171.2C188 199.7 192 228.3 213.8 257C235.7 285.7 275.3 314.3 300 343C324.7 371.7 334.3 400.3 321.7 428.8C309 457.3 274 485.7 249.2 514.2C224.3 542.7 209.7 571.3 202.3 585.7L195 600L0 600L0 585.7C0 571.3 0 542.7 0 514.2C0 485.7 0 457.3 0 428.8C0 400.3 0 371.7 0 343C0 314.3 0 285.7 0 257C0 228.3 0 199.7 0 171.2C0 142.7 0 114.3 0 85.8C0 57.3 0 28.7 0 14.3L0 0Z" fill="#fa7268"></path><path d="M196 0L189.5 14.3C183 28.7 170 57.3 160 85.8C150 114.3 143 142.7 142.8 171.2C142.7 199.7 149.3 228.3 145.8 257C142.3 285.7 128.7 314.3 135.5 343C142.3 371.7 169.7 400.3 184 428.8C198.3 457.3 199.7 485.7 188.7 514.2C177.7 542.7 154.3 571.3 142.7 585.7L131 600L0 600L0 585.7C0 571.3 0 542.7 0 514.2C0 485.7 0 457.3 0 428.8C0 400.3 0 371.7 0 343C0 314.3 0 285.7 0 257C0 228.3 0 199.7 0 171.2C0 142.7 0 114.3 0 85.8C0 57.3 0 28.7 0 14.3L0 0Z" fill="#fcb69f"></path></svg>