<?xml version="1.0" encoding="UTF-8" standalone="no"?><!DOCTYPE svg PUBLIC "-//W3C//DTD SVG 1.1//EN" "http://www.w3.org/Graphics/SVG/1.1/DTD/svg11.dtd"><svg width="100%" height="100%" viewBox="0 0 3750 2500" version="1.1" xmlns="http://www.w3.org/2000/svg" xmlns:xlink="http://www.w3.org/1999/xlink" xml:space="preserve" xmlns:serif="http://www.serif.com/" style="fill-rule:evenodd;clip-rule:evenodd;stroke-linejoin:round;stroke-miterlimit:2;"><path d="M3898.95,1913.92c0,118.75 -345.954,-20.875 -476.096,-49.425c-140.929,-30.917 -504.533,-255.275 -339.217,-484.75c79.442,-110.271 116.25,-238.75 37.084,-358.334c-79.167,-119.583 -90.792,-239.054 -154.754,-357.946c-24.804,-46.104 -42.717,-302.4 185.108,-438.445c289.363,-172.796 598.925,-225.017 598.925,-225.017l148.95,1913.92Z" style="fill:#fa7268;fill-rule:nonzero;"/><path d="M3766.59,2242.72c-0.001,0 -285.042,-347.237 -340.855,-456.058c-53.475,-104.263 22.159,-234.571 12.163,-351.321c-10.125,-118.275 -82.5,-239.029 -72.917,-358.333c9.583,-119.305 137.5,-238.75 130.417,-357.5c-7.083,-118.75 -147.083,-237.084 -227.084,-355.834c-79.999,-118.75 481.688,-363.679 481.688,-363.679l16.587,2242.72Z" style="fill:#fcb69f;fill-rule:nonzero;"/><path d="M-22.562,2963.15c-0,0 737.057,-503.211 881.377,-660.912c138.275,-151.095 -57.297,-339.936 -31.45,-509.128c26.181,-171.402 213.327,-346.397 188.547,-519.29c-24.78,-172.894 -355.546,-345.993 -337.23,-518.083c18.316,-172.09 949.393,-596.495 1156.26,-768.586c206.863,-172.09 -1887.57,-288.71 -1887.57,-288.71l30.066,3264.71Z" style="fill:#fcb69f;fill-rule:nonzero;"/><path d="M2066.39,2868.6c118.75,0 -220.291,-411.202 -248.841,-541.343c-30.917,-140.93 -410.917,-509.398 -640.392,-344.081c-110.271,79.442 -238.75,116.25 -358.334,37.083c-119.583,-79.166 -239.054,-90.791 -357.945,-154.754c-46.105,-24.804 -302.4,-42.716 -438.446,185.109c-172.796,289.362 -225.017,598.925 -225.017,598.925l2268.97,219.061Z" style="fill:#fa7268;fill-rule:nonzero;"/></svg>