<?xml version="1.0" encoding="UTF-8" standalone="no"?>
<!DOCTYPE svg PUBLIC "-//W3C//DTD SVG 1.1//EN" "http://www.w3.org/Graphics/SVG/1.1/DTD/svg11.dtd">
<svg width="100%" height="100%" viewBox="0 0 900 600" version="1.1" xmlns="http://www.w3.org/2000/svg" xmlns:xlink="http://www.w3.org/1999/xlink" xml:space="preserve" xmlns:serif="http://www.serif.com/" style="fill-rule:evenodd;clip-rule:evenodd;stroke-linejoin:round;stroke-miterlimit:2;">
    <path d="M900,514.2C900,542.7 785.573,505.632 771.073,477.132C756.573,448.632 721.973,445.438 713.973,416.938C705.973,388.438 724.573,359.838 740.073,331.138C755.573,302.438 767.973,273.838 748.973,245.138C729.973,216.438 670.307,187.872 653.473,159.338C638.979,134.77 720.528,109.251 682.613,59.593C641.069,5.182 900,0 900,0L900,514.2Z" style="fill:rgb(250,114,104);fill-rule:nonzero;"/>
    <path d="M900,585.7C900,585.7 781.595,544.183 785.195,515.683C788.895,487.183 769.895,458.783 777.695,430.283C785.595,401.783 820.195,373.183 825.095,344.483C829.895,315.783 804.895,287.183 807.595,258.483C810.195,229.783 840.595,201.183 838.895,172.683C837.195,144.183 803.595,115.783 784.395,87.283C765.195,58.783 900,0 900,0L900,585.7Z" style="fill:rgb(252,182,159);fill-rule:nonzero;"/>
    <g transform="matrix(-1,0,0,-1,900.277,594.539)">
        <path d="M257.2,601C214.3,601 421.762,459.267 486.029,424.217C532.943,398.631 610.379,423.058 653.179,411.458C696.079,399.758 728.3,376 771.2,381.7C814,387.3 857,401.7 878.5,408.8L900,416L900,601L257.2,601Z" style="fill:rgb(250,114,104);fill-rule:nonzero;"/>
    </g>
    <g transform="matrix(-1,0,0,-1,900.277,594.539)">
        <path d="M355.551,598.035C312.651,598.035 471.3,482 514.2,475.7C557,469.3 600,467.7 642.8,478C685.7,488.3 713.473,479.563 756.373,486.863C799.173,494.163 882.206,296.296 903.706,292.396L899.829,598.962C899.829,598.962 814,601 771.2,601L642.8,601C600,601 398.351,598.035 355.551,598.035Z" style="fill:rgb(252,182,159);fill-rule:nonzero;"/>
    </g>
</svg>
