<svg id="visual" viewBox="0 0 900 600" width="900" height="600" xmlns="http://www.w3.org/2000/svg" xmlns:xlink="http://www.w3.org/1999/xlink" version="1.1"><path d="M712 600L714.8 585.7C717.7 571.3 723.3 542.7 708.8 514.2C694.3 485.7 659.7 457.3 651.7 428.8C643.7 400.3 662.3 371.7 677.8 343C693.3 314.3 705.7 285.7 686.7 257C667.7 228.3 617.3 199.7 591.2 171.2C565 142.7 563 114.3 585.7 85.8C608.3 57.3 655.7 28.7 679.3 14.3L703 0L900 0L900 14.3C900 28.7 900 57.3 900 85.8C900 114.3 900 142.7 900 171.2C900 199.7 900 228.3 900 257C900 285.7 900 314.3 900 343C900 371.7 900 400.3 900 428.8C900 457.3 900 485.7 900 514.2C900 542.7 900 571.3 900 585.7L900 600Z" fill="#fa7268"></path><path d="M677 600L690.2 585.7C703.3 571.3 729.7 542.7 733.3 514.2C737 485.7 718 457.3 725.8 428.8C733.7 400.3 768.3 371.7 773.2 343C778 314.3 753 285.7 755.7 257C758.3 228.3 788.7 199.7 787 171.2C785.3 142.7 751.7 114.3 732.5 85.8C713.3 57.3 708.7 28.7 706.3 14.3L704 0L900 0L900 14.3C900 28.7 900 57.3 900 85.8C900 114.3 900 142.7 900 171.2C900 199.7 900 228.3 900 257C900 285.7 900 314.3 900 343C900 371.7 900 400.3 900 428.8C900 457.3 900 485.7 900 514.2C900 542.7 900 571.3 900 585.7L900 600Z" fill="#fcb69f"></path></svg>