<svg id="visual" viewBox="0 0 900 600" width="900" height="600" xmlns="http://www.w3.org/2000/svg" xmlns:xlink="http://www.w3.org/1999/xlink" version="1.1"><path d="M606 600L608.3 590.8C610.7 581.7 615.3 563.3 611.5 545.2C607.7 527 595.3 509 597 490.8C598.7 472.7 614.3 454.3 633.8 436.2C653.3 418 676.7 400 691 381.8C705.3 363.7 710.7 345.3 697.8 327.2C685 309 654 291 634 272.8C614 254.7 605 236.3 608.8 218.2C612.7 200 629.3 182 640.8 163.8C652.3 145.7 658.7 127.3 652.7 109.2C646.7 91 628.3 73 614.3 54.8C600.3 36.7 590.7 18.3 585.8 9.2L581 0L900 0L900 9.2C900 18.3 900 36.7 900 54.8C900 73 900 91 900 109.2C900 127.3 900 145.7 900 163.8C900 182 900 200 900 218.2C900 236.3 900 254.7 900 272.8C900 291 900 309 900 327.2C900 345.3 900 363.7 900 381.8C900 400 900 418 900 436.2C900 454.3 900 472.7 900 490.8C900 509 900 527 900 545.2C900 563.3 900 581.7 900 590.8L900 600Z" fill="#fa7268"></path><path d="M708 600L725 590.8C742 581.7 776 563.3 780.3 545.2C784.7 527 759.3 509 749.8 490.8C740.3 472.7 746.7 454.3 745.7 436.2C744.7 418 736.3 400 729.5 381.8C722.7 363.7 717.3 345.3 715.2 327.2C713 309 714 291 720 272.8C726 254.7 737 236.3 749.8 218.2C762.7 200 777.3 182 786.2 163.8C795 145.7 798 127.3 800.8 109.2C803.7 91 806.3 73 804.3 54.8C802.3 36.7 795.7 18.3 792.3 9.2L789 0L900 0L900 9.2C900 18.3 900 36.7 900 54.8C900 73 900 91 900 109.2C900 127.3 900 145.7 900 163.8C900 182 900 200 900 218.2C900 236.3 900 254.7 900 272.8C900 291 900 309 900 327.2C900 345.3 900 363.7 900 381.8C900 400 900 418 900 436.2C900 454.3 900 472.7 900 490.8C900 509 900 527 900 545.2C900 563.3 900 581.7 900 590.8L900 600Z" fill="#eecfae"></path></svg>