<?xml version="1.0" encoding="UTF-8" standalone="no"?><!DOCTYPE svg PUBLIC "-//W3C//DTD SVG 1.1//EN" "http://www.w3.org/Graphics/SVG/1.1/DTD/svg11.dtd"><svg width="100%" height="100%" viewBox="0 0 8334 25000" version="1.1" xmlns="http://www.w3.org/2000/svg" xmlns:xlink="http://www.w3.org/1999/xlink" xml:space="preserve" xmlns:serif="http://www.serif.com/" style="fill-rule:evenodd;clip-rule:evenodd;stroke-linejoin:round;stroke-miterlimit:2;"><path d="M-48.638,1511.83l127.896,-136.621c126.963,-136.616 382.759,-409.858 637.617,-493.654c254.858,-82.883 510.654,22.771 763.646,170.321c253.925,147.55 505.987,335.175 759.912,353.392c252.992,18.217 508.788,-132.979 763.646,-194c254.858,-61.025 510.654,-30.058 765.513,9.108c254.858,39.163 510.654,88.346 765.512,152.104c254.863,63.755 510.654,142.084 765.513,122.959c254.862,-20.038 474.916,411.496 727.908,343.183c294.579,-79.537 894.587,-480.888 1167.84,41.525c89.963,171.988 1082.82,1596.33 1221.33,1380.57c150.875,-235.004 -64.363,-3634.25 -64.363,-3634.25l-8401.96,-0l-0,1885.36l-0.013,0Z" style="fill:#fa7268;fill-rule:nonzero;"/><path d="M-148.25,370.896l127.896,27.262c126.967,28.096 382.758,82.625 637.617,109.067c254.862,26.438 510.654,23.133 763.645,-16.525c253.93,-39.662 505.988,-117.329 759.913,-109.067c252.996,8.263 508.787,102.455 763.646,183.43c254.862,80.97 510.654,150.375 765.512,161.116c254.863,10.742 510.654,-35.529 765.517,-14.046c254.858,22.309 510.65,113.196 765.512,162.767c254.859,49.575 510.655,57.837 763.646,-39.658c112.229,-43.455 1302.12,-174.917 1800.37,465.479c142.421,183.058 610.379,728.083 607.762,438.683c-4.366,-482.958 -119.058,-1944.29 -119.058,-1938.62l-8401.96,-0l-0,570.108l-0.017,-0Z" style="fill:#fcb69f;fill-rule:nonzero;"/><path d="M-676.7,15191.7c0,0 686.65,1130.58 663.496,1610.5c-23.15,479.921 48.575,792.459 43.35,1272.38c-4.854,479.916 10.079,961.52 91.483,1444.8c81.771,483.287 229.638,964.891 321.867,1448.18c92.229,483.283 128.079,964.887 81.029,1444.8c-47.421,479.921 -178.112,958.154 -270.712,1438.08c-92.98,479.917 -964.125,3386.55 -964.125,3386.55l33.612,-2182.55l0,-9862.75l0,0.004Z" style="fill:#fa7268;fill-rule:nonzero;"/><path d="M-4.325,1607.91c0,0 514.317,1680.06 597.438,3141.41c27.799,488.716 -63.48,958.154 -64.226,1438.07c-0.375,479.917 24.271,961.521 11.201,1444.81c-13.067,483.287 -63.851,964.887 -38.459,1448.17c25.392,483.287 127.704,964.887 181.1,1444.81c53.396,479.917 58.621,958.154 17.55,1438.07c-41.075,479.917 -711.329,4476.79 -711.329,4476.79l6.725,-3272.79l0,-11559.3Z" style="fill:#fcb69f;fill-rule:nonzero;"/><path d="M9809.5,19955.5c0,-0 -1424.46,-1021.07 -1541.35,-1528.93c-116.892,-507.866 -395.817,-1013.95 -460.308,-1521.81c-64.492,-507.863 85.45,-1017.51 210.404,-1528.94c124.95,-511.425 224.912,-1021.07 71.746,-1532.5c-153.167,-511.429 -559.467,-1021.08 -769.871,-1528.94c-211.208,-507.863 -227.329,-1013.95 -44.338,-1521.81c182.192,-507.862 564.305,-1017.51 754.555,-1274.12l191.054,-254.821l1588.11,-0l0,10691.9l0,-0.008Z" style="fill:#fa7268;fill-rule:nonzero;"/><path d="M8547.25,16488c0,-0 -541.471,-3301.74 -518.179,-3792.45c23.937,-490.709 -98.988,-979.692 -48.525,-1470.4c51.112,-490.708 274.962,-983.137 306.662,-1477.29c31.055,-494.154 -130.687,-986.583 -113.216,-1480.74c16.821,-494.15 213.496,-986.583 202.5,-1477.29c-11,-490.709 -300.342,-895.304 -352.596,-1470.4c-68.384,-752.538 -76.113,-888.092 -378.996,-2292.91c-415.55,-1927.39 1295.75,-1674.26 1462.66,815.613l0,10084.5l-560.308,2561.38l0,-0.004Z" style="fill:#fcb69f;fill-rule:nonzero;"/><path d="M1791.12,23837.4c740.175,-2522.44 1567.61,-1750.91 2179.82,-2183.9c446.905,-316.079 1184.56,-14.317 1592.27,-157.621c408.663,-144.538 715.6,-438.033 1124.27,-367.617c407.712,69.179 817.329,247.071 1022.14,334.784l204.809,88.945l1164.88,2970.64c-1656.24,4013.84 -8280.1,2977.07 -7288.17,-685.225c0,-0 -0.014,0.004 -0.012,-0Z" style="fill:#fa7268;fill-rule:nonzero;"/><path d="M3125.28,23436.2c-408.666,-0 1102.62,-1920.48 1511.29,-2024.76c407.712,-105.925 817.329,-132.408 1225.04,38.067c408.667,170.475 673.23,25.871 1081.9,146.692c407.713,120.821 1198.68,-3154.06 1403.49,-3218.61l-36.929,5073.96c1301.55,2690.36 -2136.19,2651.23 -4090.06,1651.2c-763.699,-390.875 -1010.43,-1247.85 -1094.73,-1666.55c-0,-0.003 0,-0.008 0,-0.008Z" style="fill:#fcb69f;fill-rule:nonzero;"/></svg>