<?xml version="1.0" encoding="UTF-8" standalone="no"?><!DOCTYPE svg PUBLIC "-//W3C//DTD SVG 1.1//EN" "http://www.w3.org/Graphics/SVG/1.1/DTD/svg11.dtd"><svg width="100%" height="100%" viewBox="0 0 2000 4000" version="1.1" xmlns="http://www.w3.org/2000/svg" xmlns:xlink="http://www.w3.org/1999/xlink" xml:space="preserve" xmlns:serif="http://www.serif.com/" style="fill-rule:evenodd;clip-rule:evenodd;stroke-linejoin:round;stroke-miterlimit:2;"><path d="M-12.18,481.657l30.288,-34.902c30.068,-34.903 90.645,-104.708 151.002,-126.115c60.356,-21.174 120.933,5.817 180.848,43.512c60.135,37.695 119.828,85.628 179.963,90.281c59.914,4.654 120.492,-33.972 180.848,-49.561c60.356,-15.59 120.934,-7.679 181.29,2.327c60.356,10.005 120.934,22.57 181.29,38.858c60.356,16.287 120.934,36.298 181.29,31.412c60.356,-5.119 112.47,105.125 172.384,87.674c69.763,-20.32 211.858,-122.853 276.569,10.608c21.305,43.938 256.435,407.814 289.238,352.696c35.731,-60.037 -15.242,-928.444 -15.242,-928.444l-1989.77,-0l-0,481.654Z" style="fill:#fa7268;fill-rule:nonzero;"/><path d="M-12.18,160.554l30.288,7.679c30.068,7.911 90.645,23.268 151.002,30.714c60.356,7.446 120.933,6.515 180.848,-4.654c60.135,-11.169 119.828,-33.041 179.963,-30.714c59.914,2.327 120.492,28.853 180.848,51.656c60.356,22.803 120.934,42.348 181.29,45.373c60.356,3.025 120.934,-10.005 181.29,-3.956c60.356,6.283 120.934,31.878 181.29,45.839c60.356,13.961 120.934,16.288 180.848,-11.169c26.578,-12.238 308.37,-49.259 426.365,131.087c33.729,51.551 144.551,205.04 143.931,123.54c-1.033,-136.009 65.19,-547.545 65.19,-545.946l-2083.15,-0l-0,160.551Z" style="fill:#fcb69f;fill-rule:nonzero;"/><path d="M-35.217,1940.48c-0,0 301.203,135.094 291.048,192.44c-10.155,57.346 21.308,94.692 19.014,152.037c-2.129,57.346 4.423,114.893 40.13,172.642c35.871,57.748 100.734,115.295 141.191,173.043c40.457,57.749 56.181,115.296 35.543,172.641c-20.802,57.346 -78.13,114.491 -118.751,171.837c-40.784,57.346 -422.919,404.662 -422.919,404.662l14.744,-260.795l-0,-1178.51Z" style="fill:#fa7268;fill-rule:nonzero;"/><path d="M-6.421,808.181c0,0 225.609,200.751 262.071,375.369c12.194,58.397 -27.845,114.49 -28.173,171.836c-0.163,57.346 10.647,114.893 4.914,172.641c-5.733,57.749 -28.009,115.296 -16.871,173.044c11.138,57.748 56.018,115.295 79.441,172.641c23.422,57.346 25.715,114.491 7.698,171.837c-18.017,57.345 -312.029,534.936 -312.029,534.936l2.949,-391.069l0,-1381.24Z" style="fill:#fcb69f;fill-rule:nonzero;"/><path d="M2269.36,2048.25c-0,0 -337.343,-122.009 -365.025,-182.694c-27.682,-60.685 -93.738,-121.157 -109.011,-181.842c-15.273,-60.685 20.236,-121.583 49.828,-182.694c29.591,-61.111 53.265,-122.008 16.991,-183.119c-36.273,-61.111 -132.493,-122.009 -182.321,-182.694c-50.02,-60.685 -53.838,-121.157 -10.501,-181.842c43.147,-60.685 133.639,-121.583 178.695,-152.245l45.246,-30.449l376.098,-0l-0,1277.58Z" style="fill:#fa7268;fill-rule:nonzero;"/><path d="M2023.51,1970.17c-0,0 -128.232,-394.528 -122.716,-453.163c5.669,-58.635 -23.442,-117.064 -11.491,-175.699c12.104,-58.636 65.116,-117.477 72.624,-176.523c7.354,-59.047 -30.95,-117.888 -26.813,-176.934c3.984,-59.047 50.561,-117.888 47.957,-176.523c-2.605,-58.635 -71.127,-106.981 -83.503,-175.7c-16.194,-89.921 -18.025,-106.118 -89.753,-273.981c-98.412,-230.306 306.862,-200.058 346.389,97.459l-0,1205l-132.694,306.061Z" style="fill:#fcb69f;fill-rule:nonzero;"/><path d="M460.305,4124.51c-105.994,0 406.584,-521.573 565.369,-650.556c115.91,-94.156 307.232,-4.266 412.978,-46.953c105.993,-43.056 185.602,-130.485 291.595,-109.509c105.747,20.608 211.987,73.6 265.107,99.727l53.12,26.496l0,680.795l-1588.17,0Z" style="fill:#fa7268;fill-rule:nonzero;"/><path d="M703.301,4113.6c-105.993,0 285.982,-427.006 391.975,-450.189c105.746,-23.552 211.987,-29.44 317.733,8.464c105.993,37.903 174.612,5.751 280.605,32.615c105.746,26.864 310.897,-701.281 364.017,-715.633l-9.579,1128.15c-0,0 -212.058,7.5 -317.805,7.5l-317.238,0c-105.746,0 -603.962,-10.911 -709.708,-10.911Z" style="fill:#fcb69f;fill-rule:nonzero;"/></svg>